<svg version="1.0" preserveAspectRatio="xMidYMid meet" viewBox="413.04836895388075 103.679999104 613.9032620922385 604.259994778" zoomAndPan="magnify" xmlns:xlink="http://www.w3.org/1999/xlink" xmlns="http://www.w3.org/2000/svg" style="max-height: 500px" width="613.9032620922385" height="604.259994778"><defs><clipPath id="8882beeacd"><path clip-rule="nonzero" d="M 420.160156 108.738281 L 709.148438 108.738281 L 709.148438 397.726562 L 420.160156 397.726562 Z M 420.160156 108.738281"/></clipPath><clipPath id="1b3e7cb61e"><path clip-rule="nonzero" d="M 564.65625 108.738281 C 484.851562 108.738281 420.160156 173.429688 420.160156 253.234375 C 420.160156 333.035156 484.851562 397.726562 564.65625 397.726562 C 644.457031 397.726562 709.148438 333.035156 709.148438 253.234375 C 709.148438 173.429688 644.457031 108.738281 564.65625 108.738281 Z M 564.65625 108.738281"/></clipPath><clipPath id="e7354d0472"><path clip-rule="nonzero" d="M 0.160156 0.738281 L 289.148438 0.738281 L 289.148438 289.726562 L 0.160156 289.726562 Z M 0.160156 0.738281"/></clipPath><clipPath id="889627e130"><path clip-rule="nonzero" d="M 144.65625 0.738281 C 64.851562 0.738281 0.160156 65.429688 0.160156 145.234375 C 0.160156 225.035156 64.851562 289.726562 144.65625 289.726562 C 224.457031 289.726562 289.148438 225.035156 289.148438 145.234375 C 289.148438 65.429688 224.457031 0.738281 144.65625 0.738281 Z M 144.65625 0.738281"/></clipPath><clipPath id="17ca16e07a"><rect height="290" y="0" width="290" x="0"/></clipPath><clipPath id="e7688e2b9d"><path clip-rule="nonzero" d="M 730.851562 412.273438 L 1019.839844 412.273438 L 1019.839844 701.261719 L 730.851562 701.261719 Z M 730.851562 412.273438"/></clipPath><clipPath id="5f229e0e31"><path clip-rule="nonzero" d="M 875.34375 412.273438 C 795.542969 412.273438 730.851562 476.964844 730.851562 556.765625 C 730.851562 636.570312 795.542969 701.261719 875.34375 701.261719 C 955.148438 701.261719 1019.839844 636.570312 1019.839844 556.765625 C 1019.839844 476.964844 955.148438 412.273438 875.34375 412.273438 Z M 875.34375 412.273438"/></clipPath><clipPath id="1e9931ca80"><path clip-rule="nonzero" d="M 0.851562 0.273438 L 289.839844 0.273438 L 289.839844 289.261719 L 0.851562 289.261719 Z M 0.851562 0.273438"/></clipPath><clipPath id="201d697d5d"><path clip-rule="nonzero" d="M 145.34375 0.273438 C 65.542969 0.273438 0.851562 64.964844 0.851562 144.765625 C 0.851562 224.570312 65.542969 289.261719 145.34375 289.261719 C 225.148438 289.261719 289.839844 224.570312 289.839844 144.765625 C 289.839844 64.964844 225.148438 0.273438 145.34375 0.273438 Z M 145.34375 0.273438"/></clipPath><clipPath id="d9fdd436a6"><rect height="290" y="0" width="290" x="0"/></clipPath><clipPath id="b2e0034877"><path clip-rule="nonzero" d="M 420.160156 412.273438 L 709.148438 412.273438 L 709.148438 701.261719 L 420.160156 701.261719 Z M 420.160156 412.273438"/></clipPath><clipPath id="6852c952e0"><path clip-rule="nonzero" d="M 564.65625 412.273438 C 484.851562 412.273438 420.160156 476.964844 420.160156 556.765625 C 420.160156 636.570312 484.851562 701.261719 564.65625 701.261719 C 644.457031 701.261719 709.148438 636.570312 709.148438 556.765625 C 709.148438 476.964844 644.457031 412.273438 564.65625 412.273438 Z M 564.65625 412.273438"/></clipPath><clipPath id="314e969075"><path clip-rule="nonzero" d="M 0.160156 0.273438 L 289.148438 0.273438 L 289.148438 289.261719 L 0.160156 289.261719 Z M 0.160156 0.273438"/></clipPath><clipPath id="6a0b5dab5c"><path clip-rule="nonzero" d="M 144.65625 0.273438 C 64.851562 0.273438 0.160156 64.964844 0.160156 144.765625 C 0.160156 224.570312 64.851562 289.261719 144.65625 289.261719 C 224.457031 289.261719 289.148438 224.570312 289.148438 144.765625 C 289.148438 64.964844 224.457031 0.273438 144.65625 0.273438 Z M 144.65625 0.273438"/></clipPath><clipPath id="dc5172cc1d"><rect height="290" y="0" width="290" x="0"/></clipPath><clipPath id="28cefc1785"><path clip-rule="nonzero" d="M 730.851562 108.738281 L 1019.839844 108.738281 L 1019.839844 397.726562 L 730.851562 397.726562 Z M 730.851562 108.738281"/></clipPath><clipPath id="f61bc1e5a0"><path clip-rule="nonzero" d="M 875.34375 108.738281 C 795.542969 108.738281 730.851562 173.429688 730.851562 253.234375 C 730.851562 333.035156 795.542969 397.726562 875.34375 397.726562 C 955.148438 397.726562 1019.839844 333.035156 1019.839844 253.234375 C 1019.839844 173.429688 955.148438 108.738281 875.34375 108.738281 Z M 875.34375 108.738281"/></clipPath><clipPath id="cb83ba71f8"><path clip-rule="nonzero" d="M 0.851562 0.738281 L 289.839844 0.738281 L 289.839844 289.726562 L 0.851562 289.726562 Z M 0.851562 0.738281"/></clipPath><clipPath id="4d450fe548"><path clip-rule="nonzero" d="M 145.34375 0.738281 C 65.542969 0.738281 0.851562 65.429688 0.851562 145.234375 C 0.851562 225.035156 65.542969 289.726562 145.34375 289.726562 C 225.148438 289.726562 289.839844 225.035156 289.839844 145.234375 C 289.839844 65.429688 225.148438 0.738281 145.34375 0.738281 Z M 145.34375 0.738281"/></clipPath><clipPath id="006617f9bc"><rect height="290" y="0" width="290" x="0"/></clipPath><clipPath id="3696c7ebc4"><path clip-rule="nonzero" d="M 794.367188 166 L 956 166 L 956 340.832031 L 794.367188 340.832031 Z M 794.367188 166"/></clipPath></defs><g clip-path="url(#8882beeacd)"><g clip-path="url(#1b3e7cb61e)"><g transform="matrix(1, 0, 0, 1, 420, 108)"><g clip-path="url(#17ca16e07a)"><g clip-path="url(#e7354d0472)"><g clip-path="url(#889627e130)"><path fill-rule="nonzero" fill-opacity="1" d="M 0.160156 0.738281 L 289.148438 0.738281 L 289.148438 289.726562 L 0.160156 289.726562 Z M 0.160156 0.738281" fill="#7ed957"/></g></g></g></g></g></g><g clip-path="url(#e7688e2b9d)"><g clip-path="url(#5f229e0e31)"><g transform="matrix(1, 0, 0, 1, 730, 412)"><g clip-path="url(#d9fdd436a6)"><g clip-path="url(#1e9931ca80)"><g clip-path="url(#201d697d5d)"><path fill-rule="nonzero" fill-opacity="1" d="M 0.851562 0.273438 L 289.839844 0.273438 L 289.839844 289.261719 L 0.851562 289.261719 Z M 0.851562 0.273438" fill="#000000"/></g></g></g></g></g></g><g clip-path="url(#b2e0034877)"><g clip-path="url(#6852c952e0)"><g transform="matrix(1, 0, 0, 1, 420, 412)"><g clip-path="url(#dc5172cc1d)"><g clip-path="url(#314e969075)"><g clip-path="url(#6a0b5dab5c)"><path fill-rule="nonzero" fill-opacity="1" d="M 0.160156 0.273438 L 289.148438 0.273438 L 289.148438 289.261719 L 0.160156 289.261719 Z M 0.160156 0.273438" fill="#ffbd59"/></g></g></g></g></g></g><g clip-path="url(#28cefc1785)"><g clip-path="url(#f61bc1e5a0)"><g transform="matrix(1, 0, 0, 1, 730, 108)"><g clip-path="url(#006617f9bc)"><g clip-path="url(#cb83ba71f8)"><g clip-path="url(#4d450fe548)"><path fill-rule="nonzero" fill-opacity="1" d="M 0.851562 0.738281 L 289.839844 0.738281 L 289.839844 289.726562 L 0.851562 289.726562 Z M 0.851562 0.738281" fill="#f5791f"/></g></g></g></g></g></g><g clip-path="url(#3696c7ebc4)"><path fill-rule="nonzero" fill-opacity="1" d="M 884.316406 340.109375 L 865.957031 340.109375 C 863.425781 340.109375 861.371094 338.058594 861.371094 335.527344 L 861.371094 277.011719 L 810.410156 306.070312 C 808.230469 307.320312 805.449219 306.574219 804.179688 304.417969 L 795 288.84375 C 794.378906 287.796875 794.207031 286.535156 794.519531 285.359375 C 794.832031 284.179688 795.597656 283.171875 796.65625 282.5625 L 847.625 253.082031 L 796.652344 223.609375 C 795.597656 223 794.824219 221.988281 794.515625 220.808594 C 794.207031 219.628906 794.375 218.375 794.996094 217.324219 L 804.175781 201.75 C 805.445312 199.589844 808.226562 198.851562 810.40625 200.097656 L 861.371094 229.160156 L 861.371094 170.636719 C 861.371094 168.109375 863.425781 166.058594 865.957031 166.058594 L 884.316406 166.058594 C 886.855469 166.058594 888.90625 168.109375 888.90625 170.636719 L 888.90625 229.160156 L 939.863281 200.097656 C 942.046875 198.855469 944.820312 199.589844 946.097656 201.75 L 955.273438 217.324219 C 955.894531 218.375 956.070312 219.628906 955.75 220.808594 C 955.445312 221.988281 954.671875 223 953.613281 223.609375 L 902.648438 253.082031 L 953.613281 282.554688 C 954.667969 283.171875 955.441406 284.179688 955.75 285.355469 C 956.0625 286.53125 955.890625 287.789062 955.273438 288.839844 L 946.097656 304.414062 C 944.820312 306.574219 942.042969 307.320312 939.863281 306.066406 L 888.90625 277.011719 L 888.90625 335.527344 C 888.90625 338.058594 886.855469 340.109375 884.316406 340.109375 Z M 884.316406 340.109375" fill="#000000"/></g></svg>