<svg version="1.0" preserveAspectRatio="xMidYMid meet" viewBox="134.44319460067493 285.11999753599997 1213.2283464566929 251.09999783" zoomAndPan="magnify" xmlns:xlink="http://www.w3.org/1999/xlink" xmlns="http://www.w3.org/2000/svg" style="max-height: 500px" width="1213.2283464566929" height="251.09999783"><defs><g/><clipPath id="58b25f08ca"><path clip-rule="nonzero" d="M 138.910156 292.457031 L 254.496094 292.457031 L 254.496094 408.042969 L 138.910156 408.042969 Z M 138.910156 292.457031"/></clipPath><clipPath id="5216728917"><path clip-rule="nonzero" d="M 196.703125 292.457031 C 164.785156 292.457031 138.910156 318.332031 138.910156 350.25 C 138.910156 382.167969 164.785156 408.042969 196.703125 408.042969 C 228.621094 408.042969 254.496094 382.167969 254.496094 350.25 C 254.496094 318.332031 228.621094 292.457031 196.703125 292.457031 Z M 196.703125 292.457031"/></clipPath><clipPath id="b1266a7d91"><path clip-rule="nonzero" d="M 0.910156 0.457031 L 116.496094 0.457031 L 116.496094 116.042969 L 0.910156 116.042969 Z M 0.910156 0.457031"/></clipPath><clipPath id="01bb16ae79"><path clip-rule="nonzero" d="M 58.703125 0.457031 C 26.785156 0.457031 0.910156 26.332031 0.910156 58.25 C 0.910156 90.167969 26.785156 116.042969 58.703125 116.042969 C 90.621094 116.042969 116.496094 90.167969 116.496094 58.25 C 116.496094 26.332031 90.621094 0.457031 58.703125 0.457031 Z M 58.703125 0.457031"/></clipPath><clipPath id="1c082ffc4f"><rect height="117" y="0" width="117" x="0"/></clipPath><clipPath id="842e0bc68e"><path clip-rule="nonzero" d="M 263.175781 413.863281 L 378.761719 413.863281 L 378.761719 529.445312 L 263.175781 529.445312 Z M 263.175781 413.863281"/></clipPath><clipPath id="99bbf4d51c"><path clip-rule="nonzero" d="M 320.96875 413.863281 C 289.050781 413.863281 263.175781 439.738281 263.175781 471.65625 C 263.175781 503.574219 289.050781 529.445312 320.96875 529.445312 C 352.886719 529.445312 378.761719 503.574219 378.761719 471.65625 C 378.761719 439.738281 352.886719 413.863281 320.96875 413.863281 Z M 320.96875 413.863281"/></clipPath><clipPath id="c5f6c06a6f"><path clip-rule="nonzero" d="M 0.175781 0.863281 L 115.761719 0.863281 L 115.761719 116.445312 L 0.175781 116.445312 Z M 0.175781 0.863281"/></clipPath><clipPath id="baa6aac7b2"><path clip-rule="nonzero" d="M 57.96875 0.863281 C 26.050781 0.863281 0.175781 26.738281 0.175781 58.65625 C 0.175781 90.574219 26.050781 116.445312 57.96875 116.445312 C 89.886719 116.445312 115.761719 90.574219 115.761719 58.65625 C 115.761719 26.738281 89.886719 0.863281 57.96875 0.863281 Z M 57.96875 0.863281"/></clipPath><clipPath id="6f1b6f7931"><rect height="117" y="0" width="116" x="0"/></clipPath><clipPath id="126c9f8c98"><path clip-rule="nonzero" d="M 138.910156 413.863281 L 254.496094 413.863281 L 254.496094 529.445312 L 138.910156 529.445312 Z M 138.910156 413.863281"/></clipPath><clipPath id="f2546b3eed"><path clip-rule="nonzero" d="M 196.703125 413.863281 C 164.785156 413.863281 138.910156 439.738281 138.910156 471.65625 C 138.910156 503.574219 164.785156 529.445312 196.703125 529.445312 C 228.621094 529.445312 254.496094 503.574219 254.496094 471.65625 C 254.496094 439.738281 228.621094 413.863281 196.703125 413.863281 Z M 196.703125 413.863281"/></clipPath><clipPath id="a23bd6f77a"><path clip-rule="nonzero" d="M 0.910156 0.863281 L 116.496094 0.863281 L 116.496094 116.445312 L 0.910156 116.445312 Z M 0.910156 0.863281"/></clipPath><clipPath id="db4f712599"><path clip-rule="nonzero" d="M 58.703125 0.863281 C 26.785156 0.863281 0.910156 26.738281 0.910156 58.65625 C 0.910156 90.574219 26.785156 116.445312 58.703125 116.445312 C 90.621094 116.445312 116.496094 90.574219 116.496094 58.65625 C 116.496094 26.738281 90.621094 0.863281 58.703125 0.863281 Z M 58.703125 0.863281"/></clipPath><clipPath id="b2e12ce0cf"><rect height="117" y="0" width="117" x="0"/></clipPath><clipPath id="bb649c7282"><path clip-rule="nonzero" d="M 263.175781 292.457031 L 378.761719 292.457031 L 378.761719 408.042969 L 263.175781 408.042969 Z M 263.175781 292.457031"/></clipPath><clipPath id="d6907e4963"><path clip-rule="nonzero" d="M 320.96875 292.457031 C 289.050781 292.457031 263.175781 318.332031 263.175781 350.25 C 263.175781 382.167969 289.050781 408.042969 320.96875 408.042969 C 352.886719 408.042969 378.761719 382.167969 378.761719 350.25 C 378.761719 318.332031 352.886719 292.457031 320.96875 292.457031 Z M 320.96875 292.457031"/></clipPath><clipPath id="69d6cb17d8"><path clip-rule="nonzero" d="M 0.175781 0.457031 L 115.761719 0.457031 L 115.761719 116.042969 L 0.175781 116.042969 Z M 0.175781 0.457031"/></clipPath><clipPath id="62cd909ea7"><path clip-rule="nonzero" d="M 57.96875 0.457031 C 26.050781 0.457031 0.175781 26.332031 0.175781 58.25 C 0.175781 90.167969 26.050781 116.042969 57.96875 116.042969 C 89.886719 116.042969 115.761719 90.167969 115.761719 58.25 C 115.761719 26.332031 89.886719 0.457031 57.96875 0.457031 Z M 57.96875 0.457031"/></clipPath><clipPath id="9e8761143f"><rect height="117" y="0" width="116" x="0"/></clipPath><clipPath id="38cab9048e"><path clip-rule="nonzero" d="M 288.601562 315.09375 L 353 315.09375 L 353 385.59375 L 288.601562 385.59375 Z M 288.601562 315.09375"/></clipPath><clipPath id="4ea9955742"><rect height="352" y="0" width="949" x="0"/></clipPath></defs><g clip-path="url(#58b25f08ca)"><g clip-path="url(#5216728917)"><g transform="matrix(1, 0, 0, 1, 138, 292)"><g clip-path="url(#1c082ffc4f)"><g clip-path="url(#b1266a7d91)"><g clip-path="url(#01bb16ae79)"><path fill-rule="nonzero" fill-opacity="1" d="M 0.910156 0.457031 L 116.496094 0.457031 L 116.496094 116.042969 L 0.910156 116.042969 Z M 0.910156 0.457031" fill="#7ed957"/></g></g></g></g></g></g><g clip-path="url(#842e0bc68e)"><g clip-path="url(#99bbf4d51c)"><g transform="matrix(1, 0, 0, 1, 263, 413)"><g clip-path="url(#6f1b6f7931)"><g clip-path="url(#c5f6c06a6f)"><g clip-path="url(#baa6aac7b2)"><path fill-rule="nonzero" fill-opacity="1" d="M 0.175781 0.863281 L 115.761719 0.863281 L 115.761719 116.445312 L 0.175781 116.445312 Z M 0.175781 0.863281" fill="#000000"/></g></g></g></g></g></g><g clip-path="url(#126c9f8c98)"><g clip-path="url(#f2546b3eed)"><g transform="matrix(1, 0, 0, 1, 138, 413)"><g clip-path="url(#b2e12ce0cf)"><g clip-path="url(#a23bd6f77a)"><g clip-path="url(#db4f712599)"><path fill-rule="nonzero" fill-opacity="1" d="M 0.910156 0.863281 L 116.496094 0.863281 L 116.496094 116.445312 L 0.910156 116.445312 Z M 0.910156 0.863281" fill="#ffbd59"/></g></g></g></g></g></g><g clip-path="url(#bb649c7282)"><g clip-path="url(#d6907e4963)"><g transform="matrix(1, 0, 0, 1, 263, 292)"><g clip-path="url(#9e8761143f)"><g clip-path="url(#69d6cb17d8)"><g clip-path="url(#62cd909ea7)"><path fill-rule="nonzero" fill-opacity="1" d="M 0.175781 0.457031 L 115.761719 0.457031 L 115.761719 116.042969 L 0.175781 116.042969 Z M 0.175781 0.457031" fill="#f5791f"/></g></g></g></g></g></g><g clip-path="url(#38cab9048e)"><path fill-rule="nonzero" fill-opacity="1" d="M 324.414062 385.300781 L 317.105469 385.300781 C 316.097656 385.300781 315.28125 384.476562 315.28125 383.460938 L 315.28125 359.957031 L 294.992188 371.628906 C 294.121094 372.128906 293.015625 371.832031 292.507812 370.964844 L 288.855469 364.710938 C 288.609375 364.289062 288.539062 363.78125 288.664062 363.308594 C 288.789062 362.835938 289.09375 362.429688 289.515625 362.183594 L 309.808594 350.34375 L 289.511719 338.503906 C 289.09375 338.261719 288.785156 337.855469 288.660156 337.382812 C 288.539062 336.90625 288.605469 336.402344 288.851562 335.980469 L 292.507812 329.726562 C 293.015625 328.859375 294.121094 328.5625 294.988281 329.0625 L 315.28125 340.734375 L 315.28125 317.230469 C 315.28125 316.214844 316.097656 315.390625 317.105469 315.390625 L 324.414062 315.390625 C 325.425781 315.390625 326.242188 316.214844 326.242188 317.230469 L 326.242188 340.734375 L 346.53125 329.0625 C 347.402344 328.5625 348.503906 328.859375 349.011719 329.726562 L 352.667969 335.980469 C 352.914062 336.402344 352.984375 336.90625 352.859375 337.382812 C 352.734375 337.855469 352.429688 338.261719 352.007812 338.503906 L 331.714844 350.34375 L 352.007812 362.183594 C 352.425781 362.429688 352.734375 362.835938 352.859375 363.308594 C 352.980469 363.78125 352.914062 364.285156 352.667969 364.707031 L 349.011719 370.960938 C 348.503906 371.832031 347.398438 372.128906 346.53125 371.625 L 326.242188 359.957031 L 326.242188 383.460938 C 326.242188 384.476562 325.425781 385.300781 324.414062 385.300781 Z M 324.414062 385.300781" fill="#000000"/></g><g transform="matrix(1, 0, 0, 1, 391, 232)"><g clip-path="url(#4ea9955742)"><g fill-opacity="1" fill="#000000"><g transform="translate(0.510387, 265.199126)"><g><path d="M 81.5625 3.578125 C 128.546875 3.578125 147.148438 -19.792969 147.148438 -46.746094 C 147.148438 -73.214844 129.976562 -88.242188 98.496094 -94.917969 L 68.683594 -101.359375 C 47.460938 -105.890625 39.113281 -113.523438 39.113281 -126.878906 C 39.113281 -144.765625 53.421875 -155.019531 77.75 -155.019531 C 103.742188 -155.019531 118.769531 -143.570312 120.675781 -122.105469 L 141.902344 -122.105469 C 139.039062 -154.78125 116.144531 -173.144531 78.464844 -173.144531 C 39.351562 -173.144531 18.125 -153.589844 18.125 -124.96875 C 18.125 -98.019531 38.160156 -86.570312 65.824219 -80.847656 L 89.671875 -75.839844 C 116.144531 -70.355469 125.683594 -61.53125 125.683594 -45.550781 C 125.683594 -26.472656 111.375 -14.546875 82.28125 -14.546875 C 52.945312 -14.546875 35.773438 -26.710938 33.390625 -54.851562 L 12.164062 -54.851562 C 15.023438 -15.742188 39.113281 3.578125 81.5625 3.578125 Z M 81.5625 3.578125"/></g></g></g><g fill-opacity="1" fill="#000000"><g transform="translate(140.26578, 265.199126)"><g><path d="M 126.160156 -64.394531 C 126.160156 -102.789062 104.460938 -125.921875 69.878906 -125.921875 C 33.148438 -125.921875 11.925781 -99.6875 11.925781 -62.007812 C 11.925781 -24.085938 33.628906 2.863281 70.355469 2.863281 C 96.589844 2.863281 116.621094 -10.96875 124.492188 -35.058594 L 104.460938 -37.441406 C 98.734375 -23.132812 88.242188 -15.023438 71.070312 -15.023438 C 48.890625 -15.023438 34.582031 -28.617188 33.867188 -56.285156 L 126.160156 -56.285156 Z M 70.117188 -108.035156 C 90.148438 -108.035156 102.789062 -95.394531 105.652344 -72.023438 L 34.105469 -72.023438 C 36.25 -96.113281 50.558594 -108.035156 70.117188 -108.035156 Z M 70.117188 -108.035156"/></g></g></g><g fill-opacity="1" fill="#000000"><g transform="translate(254.025711, 265.199126)"><g><path d="M 74.410156 -51.992188 L 64.394531 -18.839844 L 54.136719 -51.992188 L 29.574219 -123.0625 L 5.960938 -123.0625 L 53.183594 0 L 74.886719 0 L 119.960938 -123.0625 L 97.78125 -123.0625 Z M 74.410156 -51.992188"/></g></g></g><g fill-opacity="1" fill="#000000"><g transform="translate(355.622608, 265.199126)"><g><path d="M 126.160156 -64.394531 C 126.160156 -102.789062 104.460938 -125.921875 69.878906 -125.921875 C 33.148438 -125.921875 11.925781 -99.6875 11.925781 -62.007812 C 11.925781 -24.085938 33.628906 2.863281 70.355469 2.863281 C 96.589844 2.863281 116.621094 -10.96875 124.492188 -35.058594 L 104.460938 -37.441406 C 98.734375 -23.132812 88.242188 -15.023438 71.070312 -15.023438 C 48.890625 -15.023438 34.582031 -28.617188 33.867188 -56.285156 L 126.160156 -56.285156 Z M 70.117188 -108.035156 C 90.148438 -108.035156 102.789062 -95.394531 105.652344 -72.023438 L 34.105469 -72.023438 C 36.25 -96.113281 50.558594 -108.035156 70.117188 -108.035156 Z M 70.117188 -108.035156"/></g></g></g><g fill-opacity="1" fill="#000000"><g transform="translate(474.152364, 265.199126)"><g><path d="M 80.847656 -126.160156 C 62.722656 -126.160156 47.9375 -118.769531 39.589844 -105.652344 L 39.589844 -123.0625 L 19.078125 -123.0625 L 19.078125 0 L 41.019531 0 L 41.019531 -68.445312 C 41.019531 -97.78125 59.144531 -107.082031 76.078125 -107.082031 C 92.773438 -107.082031 100.644531 -98.019531 100.644531 -81.085938 L 100.644531 0 L 122.585938 0 L 122.585938 -85.378906 C 122.585938 -111.375 106.605469 -126.160156 80.847656 -126.160156 Z M 80.847656 -126.160156"/></g></g></g><g fill-opacity="1" fill="#000000"><g transform="translate(596.259413, 265.199126)"><g><path d="M 79.417969 -151.441406 L 79.417969 -169.804688 L 66.300781 -169.804688 C 40.542969 -169.804688 29.335938 -158.597656 29.335938 -132.839844 L 29.335938 -122.347656 L 9.539062 -123.0625 L 9.539062 -106.128906 L 29.335938 -107.082031 L 29.335938 0 L 51.277344 0 L 51.277344 -107.082031 L 79.417969 -106.128906 L 79.417969 -123.0625 L 51.277344 -122.105469 L 51.277344 -135.941406 C 51.277344 -147.625 55.089844 -151.441406 66.777344 -151.441406 Z M 79.417969 -151.441406"/></g></g></g><g fill-opacity="1" fill="#000000"><g transform="translate(658.505397, 265.199126)"><g><path d="M 71.070312 3.101562 C 105.652344 3.101562 130.453125 -23.847656 130.453125 -62.484375 C 130.453125 -101.597656 106.128906 -126.160156 71.785156 -126.160156 C 36.488281 -126.160156 11.925781 -101.121094 11.925781 -61.53125 C 11.925781 -22.894531 35.773438 3.101562 71.070312 3.101562 Z M 71.070312 -15.261719 C 47.9375 -15.261719 33.867188 -33.628906 33.867188 -61.53125 C 33.867188 -89.433594 47.699219 -107.796875 71.070312 -107.796875 C 94.917969 -107.796875 108.511719 -90.386719 108.511719 -62.484375 C 108.511719 -34.582031 94.917969 -15.261719 71.070312 -15.261719 Z M 71.070312 -15.261719"/></g></g></g><g fill-opacity="1" fill="#000000"><g transform="translate(781.327903, 265.199126)"><g><path d="M 41.019531 0 L 41.019531 -169.804688 L 19.078125 -169.804688 L 19.078125 0 Z M 41.019531 0"/></g></g></g><g fill-opacity="1" fill="#000000"><g transform="translate(821.871258, 265.199126)"><g><path d="M 102.3125 -108.273438 C 94.441406 -119.007812 81.085938 -125.683594 65.109375 -125.683594 C 33.867188 -125.683594 11.925781 -100.644531 11.925781 -63.4375 C 11.925781 -25.28125 32.195312 2.625 65.585938 2.625 C 83.472656 2.625 97.78125 -6.679688 105.175781 -19.554688 L 105.175781 0 L 124.253906 0 L 124.253906 -169.804688 L 102.3125 -169.804688 Z M 67.730469 -16.21875 C 46.503906 -16.21875 33.867188 -34.820312 33.867188 -63.4375 C 33.867188 -91.582031 46.984375 -106.84375 68.207031 -106.84375 C 88.71875 -106.84375 103.503906 -92.058594 103.503906 -62.960938 C 103.503906 -33.867188 88.242188 -16.21875 67.730469 -16.21875 Z M 67.730469 -16.21875"/></g></g></g></g></g></svg>